<svg xmlns="http://www.w3.org/2000/svg" viewBox="0 0 1200 630" fill="none">
  <defs>
    <linearGradient id="bg" x1="0%" y1="0%" x2="100%" y2="100%">
      <stop offset="0%" stop-color="#FBF6EE"/>
      <stop offset="100%" stop-color="#F0E6D8"/>
    </linearGradient>
    <linearGradient id="gold" x1="0%" y1="0%" x2="100%" y2="0%">
      <stop offset="0%" stop-color="#F5C842"/>
      <stop offset="100%" stop-color="#C45C26"/>
    </linearGradient>
  </defs>
  <rect width="1200" height="630" fill="url(#bg)"/>
  <rect x="0" y="0" width="1200" height="6" fill="url(#gold)"/>
  <rect x="0" y="624" width="1200" height="6" fill="url(#gold)"/>
  <circle cx="100" cy="100" r="65" fill="#FBF6EE" stroke="url(#gold)" stroke-width="3"/>
  <ellipse cx="100" cy="108" rx="28" ry="20" fill="#E8A838"/>
  <text x="200" y="95" font-family="Georgia, serif" font-size="48" font-weight="700" fill="#3D2314">Sumangali Home Foods</text>
  <text x="200" y="140" font-family="Georgia, serif" font-size="22" font-style="italic" fill="#9B4E2A">Preserving Authentic Tastes for Future Generations</text>
  <text x="200" y="175" font-family="Arial, sans-serif" font-size="16" fill="#5C7A52">Crafted with Love for Authentic Food Lovers</text>
  <rect x="60" y="240" width="250" height="280" rx="20" fill="#E8A838" opacity="0.12" stroke="#E8A838" stroke-width="1"/>
  <text x="185" y="400" text-anchor="middle" font-family="Georgia, serif" font-size="22" fill="#9B4E2A">Chutney</text>
  <rect x="350" y="240" width="250" height="280" rx="20" fill="#5C7A52" opacity="0.12" stroke="#5C7A52" stroke-width="1"/>
  <text x="475" y="400" text-anchor="middle" font-family="Georgia, serif" font-size="22" fill="#5C7A52">Protein</text>
  <rect x="640" y="240" width="250" height="280" rx="20" fill="#C45C26" opacity="0.12" stroke="#C45C26" stroke-width="1"/>
  <text x="765" y="400" text-anchor="middle" font-family="Georgia, serif" font-size="22" fill="#C45C26">Laddus</text>
  <rect x="930" y="240" width="250" height="280" rx="20" fill="#9B4E2A" opacity="0.12" stroke="#9B4E2A" stroke-width="1"/>
  <text x="1055" y="400" text-anchor="middle" font-family="Georgia, serif" font-size="22" fill="#9B4E2A">Pickles</text>
  <text x="600" y="580" text-anchor="middle" font-family="Arial, sans-serif" font-size="15" fill="#9B4E2A">WhatsApp: +91 70197 74862 | sumangali-home-foods.web.app</text>
</svg>
